<?xml version="1.0" encoding="iso-8859-1"?>
<!-- Generator: Adobe Illustrator 19.0.0, SVG Export Plug-In . SVG Version: 6.00 Build 0)  -->
<svg version="1.1"
	id="Layer_1"
	xmlns="http://www.w3.org/2000/svg"
	xmlns:xlink="http://www.w3.org/1999/xlink"
	x="0px"
	y="0px"
	viewBox="0 0 487.998 487.998"
	xml:space="preserve">
	<g>
		<g>
			<path d="M443.872,62.432L341.67,1.437c-2.298-1.4-4.995-1.8-7.593-1.1s-4.795,2.4-6.094,4.7L122.78,360.908
			c-2.697,4.7-1.099,10.799,3.597,13.599l51.451,30.498c2.398,1.4,5.095,1.8,7.693,1.1s4.795-2.4,6.094-4.7L365.248,96.53
			c2.797-4.8,1.099-10.899-3.696-13.599c-4.795-2.8-10.89-1.1-13.587,3.7L179.326,382.807l-34.267-20.298L340.272,23.935
			l85.018,50.696L199.407,464.3L62.838,383.007L263.145,35.535c2.697-4.8,1.099-10.899-3.696-13.699
			c-4.795-2.7-10.889-1.1-13.687,3.7L40.559,381.507c-2.697,4.7-1.099,10.799,3.597,13.599l153.652,91.493
			c1.499,0.9,3.297,1.4,5.095,1.4h0c0.899,0,1.698-0.1,2.398-0.3c2.598-0.7,4.795-2.4,6.094-4.7L447.369,76.031
			C450.166,71.332,448.568,65.232,443.872,62.432z" />
		</g>
	</g>
</svg>
